{"title":"Grudge Match 2013 720p WEB-DL x264 AC3-SmY","uid":9461051,"size":2542165844,"categoryP":"video","categoryS":"hd___movies","magnet":"?xt=urn:btih:59fa805f72e39efbfcaee3e3c5a8a3f0b009263a&amp;dn=Grudge+Match+2013+720p+WEB-DL+x264+AC3-SmY&amp;tr=udp%3A%2F%2Ftracker.openbittorrent.com%3A80&amp;tr=udp%3A%2F%2Fopen.demonii.com%3A1337&amp;tr=udp%3A%2F%2Ftracker.coppersurfer.tk%3A6969&amp;tr=udp%3A%2F%2Fexodus.desync.com%3A6969","seeders":1,"leechers":0,"uploader":"TKTh3K1ng","files":2,"time":1389355178,"description":"[img]http://imageshack.com/a/img545/2469/dyhr.png[/img]\n\nGrudge Match 2013 720p WEB-DL x264 AC3-SmY\n\n[img]http://image11.m1905.cn/uploadfile/2013/1101/20131101094159576.jpg[/img]\n &lt;a href=&quot;\nhttp://imdb.com/title/tt1661382/&quot; rel=&quot;nofollow&quot; target=&quot;_NEW&quot;&gt;\nhttp://imdb.com/title/tt1661382/&lt;/a&gt;\n\nRating\t7.0 / 10\t\nGenre\tCelebs, Comedy, Sport\nPlot\tA pair of aging boxing rivals are coaxed out of retirement to fight one final bout -- 30 years after their last match.\n\nFormat: Matroska\nFormat version: Version 4 / Version 2\nFile size: 2.37 GiB\nDuration: 1h 53mn\nOverall bit rate: 2 996 Kbps\nEncoded date: UTC 2010-02-22 21:41:31\nWriting application: mkvmerge v5.9.0 ('On The Loose') built on Dec 9 2012 15:37:01\nWriting library: libebml v1.3.0 + libmatroska v1.4.0\n\nVideo\nID: 1\nFormat: AVC\nFormat/Info: Advanced Video Codec\nFormat profile: &lt;a class=&quot;__cf_email__&quot; href=&quot;/cdn-cgi/l/email-protection&quot; data-cfemail=&quot;337b5a545b737f001d02&quot;&gt;[email&amp;#160;protected]&lt;/a&gt;&lt;script cf-hash='f9e31' type=&quot;text/javascript&quot;&gt;\n/* &lt;![CDATA[ */!function(){try{var t=&quot;currentScript&quot;in document?document.currentScript:function(){for(var t=document.getElementsByTagName(&quot;script&quot;),e=t.length;e--;)if(t[e].getAttribute(&quot;cf-hash&quot;))return t[e]}();if(t&amp;&amp;t.previousSibling){var e,r,n,i,c=t.previousSibling,a=c.getAttribute(&quot;data-cfemail&quot;);if(a){for(e=&quot;&quot;,r=parseInt(a.substr(0,2),16),n=2;a.length-n;n+=2)i=parseInt(a.substr(n,2),16)^r,e+=String.fromCharCode(i);e=document.createTextNode(e),c.parentNode.replaceChild(e,c)}}}catch(u){}}();/* ]]&gt; */&lt;/script&gt;\nFormat settings, CABAC: Yes\nFormat settings, ReFrames: 4 frames\nMuxing mode: Header stripping\nCodec ID: V_MPEG4/ISO/AVC\nDuration: 1h 53mn\nBit rate: 2 800 Kbps\nWidth: 1 280 pixels\nHeight: 722 pixels\nDisplay aspect ratio: 16:9\nFrame rate mode: Constant\nFrame rate: 23.976 fps\nColor space: YUV\nChroma subsampling: 4:2:0\nBit depth: 8 bits\nScan type: Progressive\nBits/(Pixel*Frame): 0.126\nStream size: 2.17 GiB (92%)\nWriting library: x264 core 116 r2074 2641b9e\nLanguage: English\nDefault: Yes\nForced: No\n\nAudio\nID: 2\nFormat: AC-3\nFormat/Info: Audio Coding 3\nMode extension: CM (complete main)\nFormat settings, Endianness: Big\nMuxing mode: Header stripping\nCodec ID: A_AC3\nDuration: 1h 53mn\nBit rate mode: Constant\nBit rate: 192 Kbps\nChannel(s): 2 channels\nChannel positions: Front: L R\nSampling rate: 48.0 KHz\nBit depth: 16 bits\nCompression mode: Lossy\nStream size: 155 MiB (6%)\nDefault: Yes\nForced: No\n\n\nScreenshots :\n\n[img]http://i1.someimage.com/gSXJKBP.jpg[/img]\n\n[img]http://i1.someimage.com/qVf44Yn.jpg[/img]\n\n[img]http://i1.someimage.com/lCNCB3R.jpg[/img]\n","torrent":{"xt":"urn:btih:59fa805f72e39efbfcaee3e3c5a8a3f0b009263a","amp;dn":"Grudge+Match+2013+720p+WEB-DL+x264+AC3-SmY","amp;tr":["udp%3A%2F%2Ftracker.openbittorrent.com%3A80","udp%3A%2F%2Fopen.demonii.com%3A1337","udp%3A%2F%2Ftracker.coppersurfer.tk%3A6969","udp%3A%2F%2Fexodus.desync.com%3A6969"],"infoHash":"59fa805f72e39efbfcaee3e3c5a8a3f0b009263a","infoHashBuffer":{"type":"Buffer","data":[89,250,128,95,114,227,158,251,252,174,227,227,197,168,163,240,176,9,38,58]},"announce":[],"urlList":[]}}